# xmcd
#
# Track frame offsets:
#	150
#	16014
#	28191
#	42873
#	59625
#	78822
#	91983
#	109969
#	126263
#	141541
#	155216
#	175007
#
# Disc length: 2552 seconds
#
# Revision: 0
# Processed by: cddbd v1.5.1PL0 Copyright (c) Steve Scherf et al.
# Submitted via: audiograbber 1.83.01
#
DISCID=a109f60c
DTITLE=Judds, The - Number One Hits - Judds, The - Number One Hits
DYEAR=1900
DGENRE=Country
TTITLE0=Why Not Me
TTITLE1=Rockin' With The Rythmn Of The Rain
TTITLE2=Mama He's Crazy
TTITLE3=Turn It Loose
TTITLE4=Grandpa (Tell Me 'Bout The Goog Old Days) 
TTITLE5=Girls Night Out
TTITLE6=Love Is Alive
TTITLE7=Change Of Heart
TTITLE8=Have Mercy
TTITLE9=Let Me Tell You About Love
TTITLE10=Young Love (Strong Love)
TTITLE11=I Know Where I'm Going
EXTD=
EXTT0=
EXTT1=
EXTT2=
EXTT3=
EXTT4=
EXTT5=
EXTT6=
EXTT7=
EXTT8=
EXTT9=
EXTT10=
EXTT11=
PLAYORDER=
